solid Visualization Toolkit generated SLA File
 facet normal -1 0 0
  outer loop
   vertex -0.34999999403953552 0.89999997615814209 -0.75
   vertex -0.34999999403953552 0.89999997615814209 0.75
   vertex -0.34999999403953552 1 -0.75
  endloop
 endfacet
 facet normal -1 0 0
  outer loop
   vertex -0.34999999403953552 1 0.75
   vertex -0.34999999403953552 1 -0.75
   vertex -0.34999999403953552 0.89999997615814209 0.75
  endloop
 endfacet
 facet normal 1 0 0
  outer loop
   vertex 0.34999999403953552 0.89999997615814209 -0.75
   vertex 0.34999999403953552 1 -0.75
   vertex 0.34999999403953552 0.89999997615814209 0.75
  endloop
 endfacet
 facet normal 1 -0 0
  outer loop
   vertex 0.34999999403953552 1 0.75
   vertex 0.34999999403953552 0.89999997615814209 0.75
   vertex 0.34999999403953552 1 -0.75
  endloop
 endfacet
 facet normal 0 -1 0
  outer loop
   vertex -0.34999999403953552 0.89999997615814209 -0.75
   vertex 0.34999999403953552 0.89999997615814209 -0.75
   vertex -0.34999999403953552 0.89999997615814209 0.75
  endloop
 endfacet
 facet normal 0 -1 0
  outer loop
   vertex 0.34999999403953552 0.89999997615814209 0.75
   vertex -0.34999999403953552 0.89999997615814209 0.75
   vertex 0.34999999403953552 0.89999997615814209 -0.75
  endloop
 endfacet
 facet normal 0 1 0
  outer loop
   vertex -0.34999999403953552 1 -0.75
   vertex -0.34999999403953552 1 0.75
   vertex 0.34999999403953552 1 -0.75
  endloop
 endfacet
 facet normal 0 1 -0
  outer loop
   vertex 0.34999999403953552 1 0.75
   vertex 0.34999999403953552 1 -0.75
   vertex -0.34999999403953552 1 0.75
  endloop
 endfacet
 facet normal 0 0 -1
  outer loop
   vertex -0.34999999403953552 0.89999997615814209 -0.75
   vertex -0.34999999403953552 1 -0.75
   vertex 0.34999999403953552 0.89999997615814209 -0.75
  endloop
 endfacet
 facet normal 0 0 -1
  outer loop
   vertex 0.34999999403953552 1 -0.75
   vertex 0.34999999403953552 0.89999997615814209 -0.75
   vertex -0.34999999403953552 1 -0.75
  endloop
 endfacet
 facet normal 0 0 1
  outer loop
   vertex -0.34999999403953552 0.89999997615814209 0.75
   vertex 0.34999999403953552 0.89999997615814209 0.75
   vertex -0.34999999403953552 1 0.75
  endloop
 endfacet
 facet normal -0 0 1
  outer loop
   vertex 0.34999999403953552 1 0.75
   vertex -0.34999999403953552 1 0.75
   vertex 0.34999999403953552 0.89999997615814209 0.75
  endloop
 endfacet
 facet normal 0.86602512476164006 0 -0.50000048328135227
  outer loop
   vertex 0.30000001192092896 0.89999997615814209 0.64999997615814209
   vertex 0.30000001192092896 0 0.64999997615814209
   vertex 0.27500000596046448 0.89999997615814209 0.60669875144958496
  endloop
 endfacet
 facet normal 0.86602512476164006 0 -0.50000048328135227
  outer loop
   vertex 0.27500000596046448 0 0.60669875144958496
   vertex 0.27500000596046448 0.89999997615814209 0.60669875144958496
   vertex 0.30000001192092896 0 0.64999997615814209
  endloop
 endfacet
 facet normal 0 0 -1
  outer loop
   vertex 0.27500000596046448 0.89999997615814209 0.60669875144958496
   vertex 0.27500000596046448 0 0.60669875144958496
   vertex 0.22499999403953552 0.89999997615814209 0.60669875144958496
  endloop
 endfacet
 facet normal 0 0 -1
  outer loop
   vertex 0.22499999403953552 0 0.60669875144958496
   vertex 0.22499999403953552 0.89999997615814209 0.60669875144958496
   vertex 0.27500000596046448 0 0.60669875144958496
  endloop
 endfacet
 facet normal -0.86602525380964901 0 -0.50000025976386564
  outer loop
   vertex 0.22499999403953552 0.89999997615814209 0.60669875144958496
   vertex 0.22499999403953552 0 0.60669875144958496
   vertex 0.20000000298023224 0.89999997615814209 0.64999997615814209
  endloop
 endfacet
 facet normal -0.86602525380964901 -0 -0.50000025976386564
  outer loop
   vertex 0.20000000298023224 0 0.64999997615814209
   vertex 0.20000000298023224 0.89999997615814209 0.64999997615814209
   vertex 0.22499999403953552 0 0.60669875144958496
  endloop
 endfacet
 facet normal -0.86602555183298235 0 0.49999974357231253
  outer loop
   vertex 0.20000000298023224 0.89999997615814209 0.64999997615814209
   vertex 0.20000000298023224 0 0.64999997615814209
   vertex 0.22499999403953552 0.89999997615814209 0.69330126047134399
  endloop
 endfacet
 facet normal -0.86602555183298235 0 0.49999974357231253
  outer loop
   vertex 0.22499999403953552 0 0.69330126047134399
   vertex 0.22499999403953552 0.89999997615814209 0.69330126047134399
   vertex 0.20000000298023224 0 0.64999997615814209
  endloop
 endfacet
 facet normal 0 0 1
  outer loop
   vertex 0.22499999403953552 0.89999997615814209 0.69330126047134399
   vertex 0.22499999403953552 0 0.69330126047134399
   vertex 0.27500000596046448 0.89999997615814209 0.69330126047134399
  endloop
 endfacet
 facet normal 0 0 1
  outer loop
   vertex 0.27500000596046448 0 0.69330126047134399
   vertex 0.27500000596046448 0.89999997615814209 0.69330126047134399
   vertex 0.22499999403953552 0 0.69330126047134399
  endloop
 endfacet
 facet normal 0.86602542278519556 -0 0.49999996708972222
  outer loop
   vertex 0.27500000596046448 0.89999997615814209 0.69330126047134399
   vertex 0.27500000596046448 0 0.69330126047134399
   vertex 0.30000001192092896 0.89999997615814209 0.64999997615814209
  endloop
 endfacet
 facet normal 0.86602542278519556 0 0.49999996708972222
  outer loop
   vertex 0.30000001192092896 0 0.64999997615814209
   vertex 0.30000001192092896 0.89999997615814209 0.64999997615814209
   vertex 0.27500000596046448 0 0.69330126047134399
  endloop
 endfacet
 facet normal 0 1 0
  outer loop
   vertex 0.30000001192092896 0.89999997615814209 0.64999997615814209
   vertex 0.27500000596046448 0.89999997615814209 0.60669875144958496
   vertex 0.27500000596046448 0.89999997615814209 0.69330126047134399
  endloop
 endfacet
 facet normal 0 1 -0
  outer loop
   vertex 0.27500000596046448 0.89999997615814209 0.69330126047134399
   vertex 0.27500000596046448 0.89999997615814209 0.60669875144958496
   vertex 0.22499999403953552 0.89999997615814209 0.69330126047134399
  endloop
 endfacet
 facet normal 0 1 0
  outer loop
   vertex 0.27500000596046448 0.89999997615814209 0.60669875144958496
   vertex 0.22499999403953552 0.89999997615814209 0.60669875144958496
   vertex 0.22499999403953552 0.89999997615814209 0.69330126047134399
  endloop
 endfacet
 facet normal 0 1 0
  outer loop
   vertex 0.20000000298023224 0.89999997615814209 0.64999997615814209
   vertex 0.22499999403953552 0.89999997615814209 0.69330126047134399
   vertex 0.22499999403953552 0.89999997615814209 0.60669875144958496
  endloop
 endfacet
 facet normal 0 -1 0
  outer loop
   vertex 0.30000001192092896 0 0.64999997615814209
   vertex 0.27500000596046448 0 0.69330126047134399
   vertex 0.27500000596046448 0 0.60669875144958496
  endloop
 endfacet
 facet normal 0 -1 -0
  outer loop
   vertex 0.27500000596046448 0 0.60669875144958496
   vertex 0.27500000596046448 0 0.69330126047134399
   vertex 0.22499999403953552 0 0.60669875144958496
  endloop
 endfacet
 facet normal 0 -1 0
  outer loop
   vertex 0.27500000596046448 0 0.69330126047134399
   vertex 0.22499999403953552 0 0.69330126047134399
   vertex 0.22499999403953552 0 0.60669875144958496
  endloop
 endfacet
 facet normal 0 -1 0
  outer loop
   vertex 0.20000000298023224 0 0.64999997615814209
   vertex 0.22499999403953552 0 0.60669875144958496
   vertex 0.22499999403953552 0 0.69330126047134399
  endloop
 endfacet
 facet normal 0.86602542278519556 0 -0.49999996708972222
  outer loop
   vertex 0.30000001192092896 0.89999997615814209 -0.64999997615814209
   vertex 0.30000001192092896 0 -0.64999997615814209
   vertex 0.27500000596046448 0.89999997615814209 -0.69330126047134399
  endloop
 endfacet
 facet normal 0.86602542278519556 0 -0.49999996708972222
  outer loop
   vertex 0.27500000596046448 0 -0.69330126047134399
   vertex 0.27500000596046448 0.89999997615814209 -0.69330126047134399
   vertex 0.30000001192092896 0 -0.64999997615814209
  endloop
 endfacet
 facet normal 0 0 -1
  outer loop
   vertex 0.27500000596046448 0.89999997615814209 -0.69330126047134399
   vertex 0.27500000596046448 0 -0.69330126047134399
   vertex 0.22499999403953552 0.89999997615814209 -0.69330126047134399
  endloop
 endfacet
 facet normal 0 0 -1
  outer loop
   vertex 0.22499999403953552 0 -0.69330126047134399
   vertex 0.22499999403953552 0.89999997615814209 -0.69330126047134399
   vertex 0.27500000596046448 0 -0.69330126047134399
  endloop
 endfacet
 facet normal -0.86602555183298235 0 -0.49999974357231253
  outer loop
   vertex 0.22499999403953552 0.89999997615814209 -0.69330126047134399
   vertex 0.22499999403953552 0 -0.69330126047134399
   vertex 0.20000000298023224 0.89999997615814209 -0.64999997615814209
  endloop
 endfacet
 facet normal -0.86602555183298235 -0 -0.49999974357231253
  outer loop
   vertex 0.20000000298023224 0 -0.64999997615814209
   vertex 0.20000000298023224 0.89999997615814209 -0.64999997615814209
   vertex 0.22499999403953552 0 -0.69330126047134399
  endloop
 endfacet
 facet normal -0.86602525380964901 0 0.50000025976386564
  outer loop
   vertex 0.20000000298023224 0.89999997615814209 -0.64999997615814209
   vertex 0.20000000298023224 0 -0.64999997615814209
   vertex 0.22499999403953552 0.89999997615814209 -0.60669875144958496
  endloop
 endfacet
 facet normal -0.86602525380964901 0 0.50000025976386564
  outer loop
   vertex 0.22499999403953552 0 -0.60669875144958496
   vertex 0.22499999403953552 0.89999997615814209 -0.60669875144958496
   vertex 0.20000000298023224 0 -0.64999997615814209
  endloop
 endfacet
 facet normal 0 0 1
  outer loop
   vertex 0.22499999403953552 0.89999997615814209 -0.60669875144958496
   vertex 0.22499999403953552 0 -0.60669875144958496
   vertex 0.27500000596046448 0.89999997615814209 -0.60669875144958496
  endloop
 endfacet
 facet normal 0 0 1
  outer loop
   vertex 0.27500000596046448 0 -0.60669875144958496
   vertex 0.27500000596046448 0.89999997615814209 -0.60669875144958496
   vertex 0.22499999403953552 0 -0.60669875144958496
  endloop
 endfacet
 facet normal 0.86602512476164006 -0 0.50000048328135227
  outer loop
   vertex 0.27500000596046448 0.89999997615814209 -0.60669875144958496
   vertex 0.27500000596046448 0 -0.60669875144958496
   vertex 0.30000001192092896 0.89999997615814209 -0.64999997615814209
  endloop
 endfacet
 facet normal 0.86602512476164006 0 0.50000048328135227
  outer loop
   vertex 0.30000001192092896 0 -0.64999997615814209
   vertex 0.30000001192092896 0.89999997615814209 -0.64999997615814209
   vertex 0.27500000596046448 0 -0.60669875144958496
  endloop
 endfacet
 facet normal 0 1 0
  outer loop
   vertex 0.30000001192092896 0.89999997615814209 -0.64999997615814209
   vertex 0.27500000596046448 0.89999997615814209 -0.69330126047134399
   vertex 0.27500000596046448 0.89999997615814209 -0.60669875144958496
  endloop
 endfacet
 facet normal 0 1 -0
  outer loop
   vertex 0.27500000596046448 0.89999997615814209 -0.60669875144958496
   vertex 0.27500000596046448 0.89999997615814209 -0.69330126047134399
   vertex 0.22499999403953552 0.89999997615814209 -0.60669875144958496
  endloop
 endfacet
 facet normal 0 1 0
  outer loop
   vertex 0.27500000596046448 0.89999997615814209 -0.69330126047134399
   vertex 0.22499999403953552 0.89999997615814209 -0.69330126047134399
   vertex 0.22499999403953552 0.89999997615814209 -0.60669875144958496
  endloop
 endfacet
 facet normal 0 1 0
  outer loop
   vertex 0.20000000298023224 0.89999997615814209 -0.64999997615814209
   vertex 0.22499999403953552 0.89999997615814209 -0.60669875144958496
   vertex 0.22499999403953552 0.89999997615814209 -0.69330126047134399
  endloop
 endfacet
 facet normal 0 -1 0
  outer loop
   vertex 0.30000001192092896 0 -0.64999997615814209
   vertex 0.27500000596046448 0 -0.60669875144958496
   vertex 0.27500000596046448 0 -0.69330126047134399
  endloop
 endfacet
 facet normal 0 -1 -0
  outer loop
   vertex 0.27500000596046448 0 -0.69330126047134399
   vertex 0.27500000596046448 0 -0.60669875144958496
   vertex 0.22499999403953552 0 -0.69330126047134399
  endloop
 endfacet
 facet normal 0 -1 0
  outer loop
   vertex 0.27500000596046448 0 -0.60669875144958496
   vertex 0.22499999403953552 0 -0.60669875144958496
   vertex 0.22499999403953552 0 -0.69330126047134399
  endloop
 endfacet
 facet normal 0 -1 0
  outer loop
   vertex 0.20000000298023224 0 -0.64999997615814209
   vertex 0.22499999403953552 0 -0.69330126047134399
   vertex 0.22499999403953552 0 -0.60669875144958496
  endloop
 endfacet
 facet normal 0.86602525380964901 0 -0.50000025976386564
  outer loop
   vertex -0.20000000298023224 0.89999997615814209 0.64999997615814209
   vertex -0.20000000298023224 0 0.64999997615814209
   vertex -0.22499999403953552 0.89999997615814209 0.60669875144958496
  endloop
 endfacet
 facet normal 0.86602525380964901 0 -0.50000025976386564
  outer loop
   vertex -0.22499999403953552 0 0.60669875144958496
   vertex -0.22499999403953552 0.89999997615814209 0.60669875144958496
   vertex -0.20000000298023224 0 0.64999997615814209
  endloop
 endfacet
 facet normal 0 0 -1
  outer loop
   vertex -0.22499999403953552 0.89999997615814209 0.60669875144958496
   vertex -0.22499999403953552 0 0.60669875144958496
   vertex -0.27500000596046448 0.89999997615814209 0.60669875144958496
  endloop
 endfacet
 facet normal 0 0 -1
  outer loop
   vertex -0.27500000596046448 0 0.60669875144958496
   vertex -0.27500000596046448 0.89999997615814209 0.60669875144958496
   vertex -0.22499999403953552 0 0.60669875144958496
  endloop
 endfacet
 facet normal -0.86602512476164006 0 -0.50000048328135227
  outer loop
   vertex -0.27500000596046448 0.89999997615814209 0.60669875144958496
   vertex -0.27500000596046448 0 0.60669875144958496
   vertex -0.30000001192092896 0.89999997615814209 0.64999997615814209
  endloop
 endfacet
 facet normal -0.86602512476164006 -0 -0.50000048328135227
  outer loop
   vertex -0.30000001192092896 0 0.64999997615814209
   vertex -0.30000001192092896 0.89999997615814209 0.64999997615814209
   vertex -0.27500000596046448 0 0.60669875144958496
  endloop
 endfacet
 facet normal -0.86602542278519556 0 0.49999996708972222
  outer loop
   vertex -0.30000001192092896 0.89999997615814209 0.64999997615814209
   vertex -0.30000001192092896 0 0.64999997615814209
   vertex -0.27500000596046448 0.89999997615814209 0.69330126047134399
  endloop
 endfacet
 facet normal -0.86602542278519556 0 0.49999996708972222
  outer loop
   vertex -0.27500000596046448 0 0.69330126047134399
   vertex -0.27500000596046448 0.89999997615814209 0.69330126047134399
   vertex -0.30000001192092896 0 0.64999997615814209
  endloop
 endfacet
 facet normal 0 0 1
  outer loop
   vertex -0.27500000596046448 0.89999997615814209 0.69330126047134399
   vertex -0.27500000596046448 0 0.69330126047134399
   vertex -0.22499999403953552 0.89999997615814209 0.69330126047134399
  endloop
 endfacet
 facet normal 0 0 1
  outer loop
   vertex -0.22499999403953552 0 0.69330126047134399
   vertex -0.22499999403953552 0.89999997615814209 0.69330126047134399
   vertex -0.27500000596046448 0 0.69330126047134399
  endloop
 endfacet
 facet normal 0.86602555183298235 -0 0.49999974357231253
  outer loop
   vertex -0.22499999403953552 0.89999997615814209 0.69330126047134399
   vertex -0.22499999403953552 0 0.69330126047134399
   vertex -0.20000000298023224 0.89999997615814209 0.64999997615814209
  endloop
 endfacet
 facet normal 0.86602555183298235 0 0.49999974357231253
  outer loop
   vertex -0.20000000298023224 0 0.64999997615814209
   vertex -0.20000000298023224 0.89999997615814209 0.64999997615814209
   vertex -0.22499999403953552 0 0.69330126047134399
  endloop
 endfacet
 facet normal 0 1 0
  outer loop
   vertex -0.30000001192092896 0.89999997615814209 0.64999997615814209
   vertex -0.27500000596046448 0.89999997615814209 0.69330126047134399
   vertex -0.27500000596046448 0.89999997615814209 0.60669875144958496
  endloop
 endfacet
 facet normal 0 1 0
  outer loop
   vertex -0.27500000596046448 0.89999997615814209 0.60669875144958496
   vertex -0.27500000596046448 0.89999997615814209 0.69330126047134399
   vertex -0.22499999403953552 0.89999997615814209 0.60669875144958496
  endloop
 endfacet
 facet normal 0 1 0
  outer loop
   vertex -0.27500000596046448 0.89999997615814209 0.69330126047134399
   vertex -0.22499999403953552 0.89999997615814209 0.69330126047134399
   vertex -0.22499999403953552 0.89999997615814209 0.60669875144958496
  endloop
 endfacet
 facet normal 0 1 0
  outer loop
   vertex -0.20000000298023224 0.89999997615814209 0.64999997615814209
   vertex -0.22499999403953552 0.89999997615814209 0.60669875144958496
   vertex -0.22499999403953552 0.89999997615814209 0.69330126047134399
  endloop
 endfacet
 facet normal 0 -1 0
  outer loop
   vertex -0.30000001192092896 0 0.64999997615814209
   vertex -0.27500000596046448 0 0.60669875144958496
   vertex -0.27500000596046448 0 0.69330126047134399
  endloop
 endfacet
 facet normal 0 -1 0
  outer loop
   vertex -0.27500000596046448 0 0.69330126047134399
   vertex -0.27500000596046448 0 0.60669875144958496
   vertex -0.22499999403953552 0 0.69330126047134399
  endloop
 endfacet
 facet normal 0 -1 0
  outer loop
   vertex -0.27500000596046448 0 0.60669875144958496
   vertex -0.22499999403953552 0 0.60669875144958496
   vertex -0.22499999403953552 0 0.69330126047134399
  endloop
 endfacet
 facet normal 0 -1 0
  outer loop
   vertex -0.20000000298023224 0 0.64999997615814209
   vertex -0.22499999403953552 0 0.69330126047134399
   vertex -0.22499999403953552 0 0.60669875144958496
  endloop
 endfacet
 facet normal 0.86602555183298235 0 -0.49999974357231253
  outer loop
   vertex -0.20000000298023224 0.89999997615814209 -0.64999997615814209
   vertex -0.20000000298023224 0 -0.64999997615814209
   vertex -0.22499999403953552 0.89999997615814209 -0.69330126047134399
  endloop
 endfacet
 facet normal 0.86602555183298235 0 -0.49999974357231253
  outer loop
   vertex -0.22499999403953552 0 -0.69330126047134399
   vertex -0.22499999403953552 0.89999997615814209 -0.69330126047134399
   vertex -0.20000000298023224 0 -0.64999997615814209
  endloop
 endfacet
 facet normal 0 0 -1
  outer loop
   vertex -0.22499999403953552 0.89999997615814209 -0.69330126047134399
   vertex -0.22499999403953552 0 -0.69330126047134399
   vertex -0.27500000596046448 0.89999997615814209 -0.69330126047134399
  endloop
 endfacet
 facet normal 0 0 -1
  outer loop
   vertex -0.27500000596046448 0 -0.69330126047134399
   vertex -0.27500000596046448 0.89999997615814209 -0.69330126047134399
   vertex -0.22499999403953552 0 -0.69330126047134399
  endloop
 endfacet
 facet normal -0.86602542278519556 0 -0.49999996708972222
  outer loop
   vertex -0.27500000596046448 0.89999997615814209 -0.69330126047134399
   vertex -0.27500000596046448 0 -0.69330126047134399
   vertex -0.30000001192092896 0.89999997615814209 -0.64999997615814209
  endloop
 endfacet
 facet normal -0.86602542278519556 -0 -0.49999996708972222
  outer loop
   vertex -0.30000001192092896 0 -0.64999997615814209
   vertex -0.30000001192092896 0.89999997615814209 -0.64999997615814209
   vertex -0.27500000596046448 0 -0.69330126047134399
  endloop
 endfacet
 facet normal -0.86602512476164006 0 0.50000048328135227
  outer loop
   vertex -0.30000001192092896 0.89999997615814209 -0.64999997615814209
   vertex -0.30000001192092896 0 -0.64999997615814209
   vertex -0.27500000596046448 0.89999997615814209 -0.60669875144958496
  endloop
 endfacet
 facet normal -0.86602512476164006 0 0.50000048328135227
  outer loop
   vertex -0.27500000596046448 0 -0.60669875144958496
   vertex -0.27500000596046448 0.89999997615814209 -0.60669875144958496
   vertex -0.30000001192092896 0 -0.64999997615814209
  endloop
 endfacet
 facet normal 0 0 1
  outer loop
   vertex -0.27500000596046448 0.89999997615814209 -0.60669875144958496
   vertex -0.27500000596046448 0 -0.60669875144958496
   vertex -0.22499999403953552 0.89999997615814209 -0.60669875144958496
  endloop
 endfacet
 facet normal 0 0 1
  outer loop
   vertex -0.22499999403953552 0 -0.60669875144958496
   vertex -0.22499999403953552 0.89999997615814209 -0.60669875144958496
   vertex -0.27500000596046448 0 -0.60669875144958496
  endloop
 endfacet
 facet normal 0.86602525380964901 -0 0.50000025976386564
  outer loop
   vertex -0.22499999403953552 0.89999997615814209 -0.60669875144958496
   vertex -0.22499999403953552 0 -0.60669875144958496
   vertex -0.20000000298023224 0.89999997615814209 -0.64999997615814209
  endloop
 endfacet
 facet normal 0.86602525380964901 0 0.50000025976386564
  outer loop
   vertex -0.20000000298023224 0 -0.64999997615814209
   vertex -0.20000000298023224 0.89999997615814209 -0.64999997615814209
   vertex -0.22499999403953552 0 -0.60669875144958496
  endloop
 endfacet
 facet normal 0 1 0
  outer loop
   vertex -0.30000001192092896 0.89999997615814209 -0.64999997615814209
   vertex -0.27500000596046448 0.89999997615814209 -0.60669875144958496
   vertex -0.27500000596046448 0.89999997615814209 -0.69330126047134399
  endloop
 endfacet
 facet normal 0 1 0
  outer loop
   vertex -0.27500000596046448 0.89999997615814209 -0.69330126047134399
   vertex -0.27500000596046448 0.89999997615814209 -0.60669875144958496
   vertex -0.22499999403953552 0.89999997615814209 -0.69330126047134399
  endloop
 endfacet
 facet normal 0 1 0
  outer loop
   vertex -0.27500000596046448 0.89999997615814209 -0.60669875144958496
   vertex -0.22499999403953552 0.89999997615814209 -0.60669875144958496
   vertex -0.22499999403953552 0.89999997615814209 -0.69330126047134399
  endloop
 endfacet
 facet normal 0 1 0
  outer loop
   vertex -0.20000000298023224 0.89999997615814209 -0.64999997615814209
   vertex -0.22499999403953552 0.89999997615814209 -0.69330126047134399
   vertex -0.22499999403953552 0.89999997615814209 -0.60669875144958496
  endloop
 endfacet
 facet normal 0 -1 0
  outer loop
   vertex -0.30000001192092896 0 -0.64999997615814209
   vertex -0.27500000596046448 0 -0.69330126047134399
   vertex -0.27500000596046448 0 -0.60669875144958496
  endloop
 endfacet
 facet normal 0 -1 0
  outer loop
   vertex -0.27500000596046448 0 -0.60669875144958496
   vertex -0.27500000596046448 0 -0.69330126047134399
   vertex -0.22499999403953552 0 -0.60669875144958496
  endloop
 endfacet
 facet normal 0 -1 0
  outer loop
   vertex -0.27500000596046448 0 -0.69330126047134399
   vertex -0.22499999403953552 0 -0.69330126047134399
   vertex -0.22499999403953552 0 -0.60669875144958496
  endloop
 endfacet
 facet normal 0 -1 0
  outer loop
   vertex -0.20000000298023224 0 -0.64999997615814209
   vertex -0.22499999403953552 0 -0.60669875144958496
   vertex -0.22499999403953552 0 -0.69330126047134399
  endloop
 endfacet
endsolid
